<?xml version="1.0" encoding="UTF-8"?>
<svg id="Layer_1" data-name="Layer 1" xmlns="http://www.w3.org/2000/svg" viewBox="0 0 328.9 331.22">
  <defs>
    <style>
      .cls-1 {
        fill: #42136a;
        stroke-width: 0px;
      }
    </style>
  </defs>
  <path class="cls-1" d="M63.02,237.56c-5.02-12.19-2.15-23.26,3.43-33.87,6.65-12.65,17.4-20.85,30.04-27.03,2.22-1.09,3.6-3.9,5.37-5.92-2.27-1.95-4.36-4.21-6.88-5.74-1.32-.8-3.41-.43-5.16-.44-23.39-.19-47.54,16.72-55.34,38.75-9.72,27.44-.62,58.17,23.26,78.9,2.37,2.06,5.36,4.24,6.3,6.97,5.95,17.36,19.6,22.99,36.04,23.99,10.76.65,21.6.54,32.36.04,3.05-.14,5.98-2.87,8.96-4.41-3.12-1.78-6.15-4.9-9.38-5.11-11.33-.74-22.75-.14-34.1-.72-9.02-.46-18.46-2.99-21.82-11.97-3.21-8.57-9.32-13.61-15.33-19.43-20.66-19.99-26.24-49.67-13.83-71.95,5.77-10.36,14.48-16.93,25.02-21.1-5.73,8.91-12.24,16.92-16.44,26-7.44,16.1-8.17,32.13,5.41,46.23,1.38,1.43,1.17,4.28,2.18,6.23,1.31,2.53,3.09,4.81,4.67,7.19,1.78-2.51,5.06-4.99,5.11-7.53.44-24.38,8.27-44.48,30.5-57.26,1.74-1,1.93-4.69,2.85-7.13-2.56-.37-6.08-2-7.51-.91-7.53,5.81-15.74,11.39-21.4,18.81-6,7.88-9.41,17.73-14.3,27.4ZM206.11,59.76c.25.03.5.06.74.09-.71,4.57-.18,9.91-2.45,13.5-2.45,3.88-7.16,7.48-11.53,8.53-2.51.61-6.52-3.83-9.44-6.46-2.11-1.9-3.22-4.94-5.36-6.79-7.87-6.84-8.95-11.26-4.02-20.48,5.79-10.81,14.8-18.02,26.28-21.84,16.91-5.63,38.88-2.11,44.72,18.42.8,2.82,4.45,5.49,7.41,6.9,5.2,2.48,10.8,4.34,16.41,5.69,5.47,1.31,6.45,4.93,3.46,8.13-4.19,4.49-9.38,8.47-14.87,11.16-3.96,1.95-9.17,1.23-13.74,2.09-7.51,1.41-14.25,5.3-13.49,13.46.7,7.58,4.32,14.97,7.22,22.21.52,1.29,4.84,2.62,5.58,1.94,1.55-1.42,2.76-4.28,2.5-6.34-.4-3.08-2.24-5.96-3.38-8.95-4.04-10.66-2.8-12.72,8.83-13.33,10.4-.55,19.4-3.9,26.3-11.89,11.36-13.14,7.65-24.68-9.13-28.65-7.55-1.79-13.82-4.36-17.28-12.72-2.18-5.28-7.12-10.11-11.98-13.47-26.85-18.58-73.48,2.39-77.59,34.77-1.03,8.11.09,15.67,9.08,19.84,2.54,1.17,4.21,4.62,5.83,7.29,5.32,8.79,11.37,11.42,21.29,8.9,15.04-3.82,24.8-26.65,16.97-40.16-.82-1.41-3.32-2.81-4.83-2.6-1.47.2-3.37,2.27-3.79,3.86-.57,2.13.11,4.59.25,6.9ZM177.11,93.96c-3.32,3.7-5.14,5.11-6.15,6.96-9.45,17.34-18.85,34.7-27.96,52.22-.92,1.77.25,4.63.45,6.98,2.34-.36,6.09.07,6.8-1.2,10.19-18.23,20.1-36.62,29.62-55.21.88-1.71-1.34-5.01-2.78-9.75Z"/>
  <path class="cls-1" d="M277.32,132.65c8.04,2.92,10.73,9,11.56,16.99.38,3.71,2.94,7.4,5.13,10.69,7.69,11.51,5.03,18.31-8.67,20.92-4.26.81-8.67.89-12.26,1.24,1.81,11.67,4.07,23.25,5.31,34.94,1.55,14.61-3.44,26.91-14.97,36.39-8.71,7.16-13.01,16.59-11.81,27.75.34,3.19,3.56,6.3,5.98,8.98,2.28,2.53,6.27,3.95,7.62,6.77,1.9,3.93,3.18,8.92,2.39,13.02-.31,1.64-6.82,2.91-10.52,2.94-27.88.24-55.78-.25-83.65.32-11.03.22-20.01-3.28-27.81-10.38-4.72-4.3-9.07-9.07-13.15-13.99-12.22-14.74-13.82-30.28-3.05-46.64,6.09-9.25,12.31-18.44,17.82-28.04,2.2-3.82,3.86-8.72,3.63-13.01-.51-9.42-6.21-12.53-15.08-9.25-3,1.11-5.88,2.52-8.84,3.75-4.81,2-10.74,3.7-13.02-1.97-1.77-4.39-2.04-11.69.51-15.07,7.69-10.21,19.22-14.47,31.81-11.99,22,4.34,34.7,28.26,26.99,49.33-.57,1.55-1.05,3.13-1.31,3.9,12.82-8.07,25.67-16.55,38.92-24.35,8.25-4.85,13.15-11.28,13.6-20.91.37-7.86.6-15.73,1.09-23.59,1.45-22.91,26.86-40.95,48.57-33.58,2.87.98,3.49,8.59,5.16,13.13-.64.56-1.29,1.12-1.93,1.69ZM287.35,171.14c-3.21-7.68-6.95-14.01-8.37-20.83-1.16-5.57-2.83-8.34-8.6-8.63-6.19-.31-7.4-3.63-4.59-8.91.74-1.4,1.02-3.04,1.55-4.7-20.08-1.38-30.52,7.12-32.28,26.17-.59,6.38-.38,12.83-.59,19.25-.43,13.22-5.77,23.43-17.57,30.23-10.35,5.96-20.73,11.99-30.41,18.95-14.66,10.54-23.88,24.84-24.73,43.31-.3,6.6,1.52,13.28,1.74,19.95.08,2.46-1.69,4.98-2.62,7.48-2.1-1.03-4.28-1.94-6.28-3.15-.94-.57-1.42-1.84-2.31-2.55-18.89-15.19-20.5-24.57-7.4-45.08,5.81-9.09,12.5-17.66,17.74-27.05,7.81-14,.14-32.69-14.91-38.17-9.23-3.36-21.3.98-26.24,10.15,4.4-1.85,8.01-3.58,11.77-4.91,14.29-5.06,26.76,2.34,27.17,17.5.19,7.06-2.59,14.78-5.92,21.22-5.47,10.58-12.97,20.1-18.64,30.59-2.47,4.57-4.12,10.7-3.37,15.71,2.7,18.15,24.43,35.76,42.74,35.76,11.68,0,23.35.04,35.03-.04,2.05-.01,4.09-.53,8.39-1.12-3.67-1.75-5.08-2.6-6.61-3.11-7.99-2.72-7.55-3.9-3.45-10.72,4.8-7.99,7.52-17.23,11.39-25.81,1.26-2.8,3.3-5.26,4.98-7.87,1.5,2.98,4.66,6.25,4.19,8.87-1.68,9.29-4.6,18.36-7.38,28.74,1.35,1.52,3.94,4.45,7.61,8.59-.81-3.85-1.88-6.17-1.62-8.32.33-2.77,1.73-5.41,2.67-8.11,2.31,2.03,5.55,3.63,6.7,6.18,1.72,3.8,1.98,8.27,2.79,12.15h15.97c-15.25-4.31-15.19-16.2-14.15-27.99.98-11.16,6.1-20.6,14.77-27.92,7.22-6.1,13.07-13.63,12.14-23.18-1.22-12.58-3.45-25.28-7.15-37.34-2.87-9.36-1.81-13.16,7.98-13.88,5.97-.44,11.93-.93,17.87-1.4ZM154.68,247.16c-9.56,10.36-10.87,20.35-3.58,25.71,1.19-8.53,2.41-17.3,3.58-25.71Z"/>
  <path class="cls-1" d="M63.02,237.56c4.89-9.67,8.29-19.53,14.3-27.4,5.66-7.42,13.86-13,21.4-18.81,1.42-1.1,4.95.53,7.51.91-.91,2.44-1.11,6.13-2.85,7.13-22.23,12.78-30.06,32.88-30.5,57.26-.05,2.54-3.33,5.02-5.11,7.53-1.58-2.39-3.36-4.67-4.67-7.19-1.01-1.95-.8-4.8-2.18-6.23-13.58-14.1-12.85-30.14-5.41-46.23,4.2-9.08,10.71-17.1,16.44-26-10.54,4.17-19.25,10.73-25.02,21.1-12.41,22.29-6.83,51.96,13.83,71.95,6.01,5.82,12.12,10.85,15.33,19.43,3.37,8.98,12.8,11.51,21.82,11.97,11.35.58,22.77-.02,34.1.72,3.22.21,6.26,3.33,9.38,5.11-2.98,1.54-5.91,4.27-8.96,4.41-10.77.5-21.61.61-32.36-.04-16.44-.99-30.09-6.63-36.04-23.99-.94-2.73-3.93-4.91-6.3-6.97-23.88-20.73-32.98-51.46-23.26-78.9,7.8-22.03,31.95-38.94,55.34-38.75,1.74.01,3.83-.36,5.16.44,2.53,1.53,4.61,3.78,6.88,5.74-1.77,2.02-3.15,4.84-5.37,5.92-12.64,6.18-23.39,14.38-30.04,27.03-5.58,10.61-8.46,21.68-3.43,33.87Z"/>
  <path class="cls-1" d="M206.11,59.76c-.14-2.32-.82-4.78-.25-6.9.42-1.59,2.32-3.66,3.79-3.86,1.5-.21,4.01,1.19,4.83,2.6,7.83,13.51-1.93,36.34-16.97,40.16-9.92,2.52-15.98-.11-21.29-8.9-1.62-2.68-3.29-6.12-5.83-7.29-8.99-4.17-10.11-11.72-9.08-19.84,4.12-32.38,50.75-53.35,77.59-34.77,4.86,3.36,9.8,8.19,11.98,13.47,3.46,8.36,9.73,10.93,17.28,12.72,16.78,3.97,20.49,15.51,9.13,28.65-6.91,7.99-15.9,11.34-26.3,11.89-11.63.62-12.87,2.68-8.83,13.33,1.14,3,2.98,5.88,3.38,8.95.27,2.06-.95,4.92-2.5,6.34-.74.68-5.06-.65-5.58-1.94-2.9-7.24-6.52-14.63-7.22-22.21-.75-8.16,5.98-12.05,13.49-13.46,4.58-.86,9.78-.14,13.74-2.09,5.5-2.7,10.68-6.68,14.87-11.16,2.99-3.2,2.01-6.82-3.46-8.13-5.62-1.35-11.21-3.22-16.41-5.69-2.96-1.41-6.6-4.08-7.41-6.9-5.84-20.52-27.81-24.05-44.72-18.42-11.48,3.82-20.5,11.04-26.28,21.84-4.93,9.21-3.85,13.63,4.02,20.48,2.14,1.86,3.24,4.9,5.36,6.79,2.92,2.63,6.93,7.07,9.44,6.46,4.37-1.05,9.08-4.66,11.53-8.53,2.26-3.59,1.74-8.93,2.45-13.5-.25-.03-.5-.06-.74-.09Z"/>
  <path class="cls-1" d="M177.11,93.96c1.44,4.74,3.65,8.04,2.78,9.75-9.52,18.59-19.43,36.98-29.62,55.21-.71,1.27-4.47.84-6.8,1.2-.2-2.35-1.37-5.21-.45-6.98,9.1-17.52,18.51-34.88,27.96-52.22,1.01-1.85,2.83-3.26,6.15-6.96Z"/>
</svg>