<?xml version="1.0" encoding="UTF-8"?>
<svg id="Layer_1" data-name="Layer 1" xmlns="http://www.w3.org/2000/svg" viewBox="0 0 328.9 331.22">
  <defs>
    <style>
      .cls-1 {
        fill: #306;
        stroke-width: 0px;
      }
    </style>
  </defs>
  <path class="cls-1" d="M209.25,311.27c-4.65-.7-9.75-1.03-14.61-2.26-19.51-4.95-38.84-4.52-58.43-.03-22.93,5.26-42.84-.94-58.29-18.89-17.1-19.87-16.65-50.68,1.78-69.36,16.06-16.27,28.18-34.76,38.08-55.2,10.34-21.35,28.12-31.86,51.86-30.3,20.59,1.35,35.49,12.26,44.28,30.86,6.92,14.64,14.65,28.7,25.2,41.07,2.79,3.27,5.72,6.47,8.86,9.4,15.82,14.77,21.47,32.85,16,53.6-5.68,21.57-20.8,34.03-42.07,39.3-3.97.98-8.13,1.17-12.66,1.79ZM209.42,298.79c3.71-.56,7.7-.72,11.44-1.79,15.68-4.48,27.04-13.98,31.21-30.11,4.21-16.29-.46-30.34-13.01-41.67-1.39-1.25-2.73-2.56-4.02-3.92-12.9-13.62-22.84-29.2-30.51-46.25-3.84-8.54-8.77-16.12-16.85-21.26-20.69-13.15-47.74-5.81-58.33,16.39-10.42,21.84-22.95,41.98-40.54,58.94-8.49,8.18-11.51,19.14-10.44,30.97,2.54,28.13,30.8,42.3,51.83,37.35,23.27-5.48,46.33-6.22,69.54-.11,3.05.8,6.26.96,9.68,1.46Z"/>
  <path class="cls-1" d="M251.55,69.93c-.41,14.7-5.21,30.14-17.69,42.4-15.06,14.79-34.9,12.51-46.49-5.12-14.99-22.79-10.4-59.76,9.7-78.23,14.76-13.56,33.65-11.52,45.03,4.99,6.94,10.07,9.47,21.47,9.46,35.96ZM191,75.94c.33,9.69,2.26,19.9,9.78,28.12,6.16,6.73,13.66,7.32,21.1,2.01,18.03-12.86,23.12-48.09,9.5-65.71-7.76-10.04-17.61-10.64-26.79-1.26-9.69,9.9-13.26,22.29-13.59,36.83Z"/>
  <path class="cls-1" d="M79.77,61.28c.06-6.66,2.67-18.03,9.78-28.01,10.55-14.81,27.48-17.54,41.74-6.85,23.66,17.74,28.82,61.7,9.92,84.4-13.16,15.8-34.26,14.37-48.11-3.25-8.78-11.18-13.41-25.35-13.33-46.29ZM92.13,67.26c.54,14.78,4.38,28.41,16.62,38.17,8.27,6.6,17.03,5.09,23.46-3.37,5.43-7.14,7.64-15.43,7.9-24.17.49-16.01-3.4-30.55-16.21-41.3-7.69-6.45-15.58-5.67-22.35,1.79-7.38,8.12-9.08,18.19-9.41,28.88Z"/>
  <path class="cls-1" d="M244.12,163.89c.28-22.34,14.6-44.8,34.08-52.98,19.71-8.27,39.03,1.06,44.51,21.5,6.99,26.11-10.21,58-35.61,66.01-19.02,6-36.7-4-41.28-23.47-.85-3.62-1.14-7.37-1.69-11.06ZM256.95,163.11c0,1.12-.07,2.25,0,3.37,1.24,18.25,15.94,26.77,31.78,17.7,15.38-8.8,22.72-23.02,23.03-40.52.15-8.76-2.63-16.95-11.13-21.26-8.47-4.29-16.61-1.73-23.77,3.41-12.65,9.09-18.98,21.83-19.93,37.29Z"/>
  <path class="cls-1" d="M6.83,147.64c-.02-21.88,9.94-36.42,25.83-38.91,6.01-.94,12.89-.25,18.66,1.75,22.51,7.8,38.58,35.85,34.87,59.48-4.33,27.63-29.41,38.94-52.75,23.43-17.29-11.49-25.52-28.29-26.6-45.75ZM19.13,144.74c1.5,17.37,8.56,31.84,24.9,40.25,13.86,7.14,26.59.46,29.49-14.85,3.32-17.59-7.57-39.22-23.71-47.08-14-6.82-26.51-.71-29.74,14.6-.46,2.19-.6,4.44-.94,7.08Z"/>
  <path class="cls-1" d="M202.37,202.3c2.07,1.65,4.03,2.74,5.36,4.35,6.88,8.39,13.58,16.93,20.38,25.39,2.41,3,3.15,6.11.24,9.05-3.2,3.24-6.72,2.45-9.3-.66-7.4-8.93-14.7-17.96-21.61-27.27-1.21-1.63-.93-5.01-.19-7.19.5-1.47,3.01-2.25,5.12-3.67Z"/>
  <path class="cls-1" d="M183.51,185.8c2.32-1.52,4.52-4.04,6.98-4.33,3.86-.44,6.64,2.65,5.65,6.31-.62,2.29-3.89,5.18-6.14,5.33-2.07.14-4.36-3.02-6.55-4.72.02-.86.04-1.72.07-2.59Z"/>
</svg>