<?xml version="1.0" encoding="UTF-8"?>
<svg id="Layer_1" data-name="Layer 1" xmlns="http://www.w3.org/2000/svg" viewBox="0 0 328.9 331.22">
  <defs>
    <style>
      .cls-1 {
        fill: #306;
        stroke-width: 0px;
      }
    </style>
  </defs>
  <path class="cls-1" d="M45.74,253.69c-2.44,0-4.81-1.33-6.8-3.92-10.57-13.77-17.38-29.75-20.23-47.51-8.16-50.87,4.5-96.08,37.64-134.36,20.76-23.98,48.01-38.75,80.99-43.89,29.45-4.59,57.36-1.68,82.94,8.65,30.67,12.38,54.8,34.26,71.74,65.02,13.25,24.06,20.17,50.91,20.58,79.8v.07c-.37,26.02-6.09,47.56-17.5,65.84-1.65,2.64-3.24,4.92-4.86,6.96-1.5,1.88-3.49,3.05-5.6,3.29-2.01.22-4.06-.41-5.76-1.78-3.38-2.72-3.81-7.39-1.04-11.1,9.43-12.63,15.21-27.49,17.68-45.42,3.21-23.4.38-47.19-8.42-70.71-10.35-27.65-27.09-49.56-49.75-65.11-17.31-11.88-37.26-18.95-59.29-21.04-24.8-2.35-46.67.62-66.87,9.07-26.43,11.06-47.12,30.21-61.49,56.91-12.72,23.65-18.68,49.11-17.71,75.68.89,24.29,7.29,44.03,19.56,60.34,1.62,2.16,2.3,4.46,1.95,6.67-.31,1.99-1.42,3.7-3.21,4.97-1.49,1.06-3.04,1.57-4.56,1.57Z"/>
  <path class="cls-1" d="M165.45,319.09c-.16,0-.32,0-.49,0h-.02c-33.86-.35-62.3-9.33-86.96-27.45-3.3-2.43-6.33-5.22-9.26-7.92-.59-.55-1.19-1.09-1.78-1.64-4.56-4.16-5.78-9.58-3.44-15.25,16.33-39.62,45.1-62.74,85.52-68.72,26.11-3.86,50.28.64,71.82,13.38,21.2,12.53,36.71,31.02,46.11,54.95,2.34,5.97,1.12,11.36-3.63,16.02-11.56,11.34-25.6,20.08-42.92,26.73-17.13,6.57-35.62,9.91-54.95,9.91ZM78.2,271.56c.33.43,1.49,1.32,2.61,2.18.89.69,1.96,1.52,3.22,2.54,21.58,17.61,47.73,26.5,79.94,27.18,14.59-.22,26.44-1.69,37.31-4.64,20.6-5.59,36.94-14.28,49.97-26.59.77-.73.83-.83.37-1.94-7.07-17.21-18.12-31.15-32.85-41.46-18.63-13.03-40.35-18.26-64.56-15.54-33.05,3.72-57.55,21.14-72.81,51.79-.64,1.29-1.21,2.36-1.69,3.28-.68,1.3-1.39,2.64-1.51,3.18Z"/>
  <path class="cls-1" d="M163.28,176.43c-1.98,0-3.96-.14-5.96-.41-13.98-1.94-26.01-10.51-33-23.49-4.38-8.13-6.57-16.69-6.51-25.46v-.05c.44-16.61,6.7-29.91,18.61-39.54,18.1-14.63,44.36-12.32,59.79,5.26,8.53,9.72,13.14,22.28,12.98,35.37-.16,13.12-5.08,25.33-13.86,34.38-8.76,9.03-20.19,13.95-32.05,13.95ZM163.62,93.6c-8.08,0-15.84,3.64-21.71,10.29-11.93,13.52-10.97,36.31,2.04,48.78,10.5,10.05,25.65,10.8,36.86,1.82,8.13-6.51,12.26-15.38,12.63-27.1.05-5.81-1.25-11.42-3.85-16.66-4.69-9.47-12.87-15.63-22.43-16.89-1.19-.16-2.38-.23-3.55-.23Z"/>
</svg>