<?xml version="1.0" encoding="UTF-8"?>
<svg id="Layer_1" data-name="Layer 1" xmlns="http://www.w3.org/2000/svg" viewBox="0 0 328.9 331.22">
  <defs>
    <style>
      .cls-1 {
        fill: #42136a;
        stroke-width: 0px;
      }
    </style>
  </defs>
  <path class="cls-1" d="M60.96,212.59c0-10.35-.2-20.7.09-31.05.12-4.34-1.32-6.83-5.21-8.74-7.2-3.54-14.18-7.54-21.22-11.41-8.49-4.67-8.65-5.91-1.62-13.04,7.26-7.37,14.42-14.86,21.97-21.93,3.54-3.31,3.77-5.36.11-8.82-8.15-7.68-15.74-15.96-23.78-23.77-4.66-4.52-3.94-7.48,1.6-10.46,31.31-16.88,62.58-33.85,93.79-50.92,3.95-2.16,6.72-1.67,9.8,1.55,7.35,7.68,15.41,14.73,22.36,22.73,4.78,5.51,7.6,4.21,11.8-.37,7-7.61,14.61-14.65,21.85-22.04,2.89-2.95,5.54-4.48,9.73-2.05,8.93,5.18,18.11,9.94,27.13,14.97,2.42,1.35,5.78,2.65,3.78,6.4-2.22,4.16-5.42,1.9-8.13.49-7.37-3.86-14.71-7.79-21.93-11.92-2.83-1.62-4.9-2.09-7.49.62-6.76,7.06-13.7,13.95-20.79,20.66-3.18,3.01-2.16,4.36,1.11,6.11,27.79,14.95,55.57,29.92,83.24,45.09,3.53,1.94,5.52,1.16,8.01-1.48,6.12-6.47,12.33-12.88,18.84-18.96,3.74-3.49,3.86-5.27-.99-7.78-13.24-6.86-26.27-14.14-39.34-21.32-2.85-1.56-7.41-2.84-4.81-7.26,2.49-4.23,6.15-1.23,9.02.31,15.42,8.28,30.69,16.82,46.16,25,6.11,3.23,6.37,6.31,1.47,11-7.68,7.35-14.69,15.42-22.59,22.51-4.79,4.31-3.95,6.74.28,10.66,7.8,7.22,14.93,15.15,22.56,22.54,4.53,4.39,4.38,7.5-1.38,10.46-7.14,3.67-13.97,7.98-21.23,11.38-5.09,2.38-7.01,5.39-6.89,11.2.42,19.83-.11,39.68.31,59.5.14,6.45-2.28,9.74-7.79,12.65-30.17,15.98-60.2,32.23-90.16,48.62-4.21,2.31-7.43,2.63-11.8.23-30.42-16.7-60.96-33.21-91.59-49.53-4.73-2.52-6.54-5.55-6.37-10.82.34-10.34.1-20.7.1-31.05ZM69.01,180.27c0,20.45.28,39.39-.16,58.31-.14,5.82,1.93,8.57,6.86,11.18,26.36,13.94,52.51,28.29,78.78,42.41,1.62.87,3.17,2.69,5.06,1.8v-107.59c-8.34,8.44-15.74,15.67-22.82,23.2-3.33,3.55-6.31,3.94-10.52,1.49-8.18-4.75-16.67-8.96-24.92-13.58-2.78-1.55-7.45-2.69-5.11-7.3,2.43-4.77,5.87-1.21,8.8.02,9.07,3.81,17.6,14.52,26.42,11.49,8.8-3.02,14.85-13.78,22.41-20.82,3.88-3.62,2.52-5.03-1.37-7.11-27.54-14.77-55-29.72-82.45-44.65-2.43-1.32-4.3-2.07-6.76.38-8.05,8.02-16.36,15.76-25.07,24.09,3.29,1.98,4.96,3.07,6.7,4.02,13.35,7.26,26.74,14.44,40.05,21.78,2.41,1.33,5.68,2.9,3.49,6.53-1.99,3.3-4.89,1.98-7.55.57-3.5-1.86-7.01-3.68-11.84-6.21ZM73.74,121.95c29.13,15.75,56.7,30.4,83.96,45.59,5.31,2.96,9.04,2.53,14.05-.23,25.85-14.25,51.92-28.11,77.87-42.18,1.61-.87,4.03-1.19,4-4.18-24.82-13.44-50.13-26.34-74.55-40.73-10.71-6.31-18.74-6.19-29.42.14-24.32,14.42-49.56,27.28-75.91,41.58ZM170.9,186.64c-.59.46-1.19.93-1.78,1.39v106.79c3.17-1.58,5.69-2.75,8.14-4.07,21.93-11.83,43.42-24.61,65.95-35.17,13.2-6.19,18.76-13.61,17.21-28.49-1.57-15.12-.35-30.53-.35-46.96-19.26,10.42-37.28,19.77-54.87,29.88-6.23,3.58-10.12,2.91-14.62-2.36-6.22-7.29-13.08-14.03-19.67-21ZM291.79,153.49c-9.11-8.46-17.37-15.95-25.4-23.68-2.23-2.14-3.95-2.44-6.68-.95-29.1,15.87-58.26,31.62-88.91,48.22,8.93,8.58,17.22,16.4,25.32,24.42,2.48,2.46,4.41,1.48,6.82.15,7.78-4.28,15.65-8.38,23.45-12.62,21.11-11.45,42.2-22.94,65.4-35.54ZM156.49,66.36c-.43-.6-.84-1.35-1.42-1.94-7.48-7.52-15.01-15-22.48-22.53-1.77-1.79-3.47-1.35-5.4-.3-28.17,15.3-56.34,30.62-84.58,45.8-3.4,1.83-3.05,3.12-.61,5.51,6.98,6.81,13.88,13.71,20.56,20.81,2.39,2.54,4.28,2.78,7.29,1.13,27.63-15.1,55.35-30.05,83-45.12,1.36-.74,3.42-1.01,3.63-3.36Z"/>
</svg>