<?xml version="1.0" encoding="UTF-8"?>
<svg id="Layer_1" data-name="Layer 1" xmlns="http://www.w3.org/2000/svg" viewBox="0 0 328.9 331.22">
  <defs>
    <style>
      .cls-1 {
        fill: #3d0166;
        stroke-width: 0px;
      }
    </style>
  </defs>
  <path class="cls-1" d="M321.35,168.58c-.57,86.76-70.6,155.26-155.74,154.95-86.67-.32-155.07-70.5-154.82-155.54C11.03,81.23,81.31,12.73,166.45,13.04c86.67.32,154.81,70.5,154.9,155.54ZM165.98,310.31c78.38-.3,141.86-63.23,142.01-141.79.14-78.43-63.08-142.08-141.78-142.19-78.47-.11-142.06,63.19-142.13,141.84-.07,78.51,63.29,141.77,141.9,142.14Z"/>
  <path class="cls-1" d="M78.55,168.29c0-8.32-.02-16.64,0-24.96.02-6.37,2.18-8.55,8.57-8.56,14.06-.02,28.12-.06,42.18.04,2.52.02,3.28-.73,3.26-3.26-.11-14.14-.05-28.29-.05-42.43,0-3.31.49-6.43,4.15-7.7,1.3-.45,2.77-.6,4.16-.6,16.81-.04,33.61-.04,50.42-.02,6.04,0,8.27,2.25,8.29,8.33.03,14.06,0,28.12.01,42.18,0,3.42.01,3.43,3.47,3.43,13.81,0,27.62,0,41.43,0,6.67,0,9.05,2.38,9.05,9.01,0,16.39.03,32.78-.04,49.17,0,1.78-.37,3.63-.92,5.33-.64,1.99-2.32,2.98-4.35,3.25-1.31.18-2.65.26-3.98.27-13.81.02-27.62.07-41.43-.04-2.47-.02-3.32.64-3.3,3.22.11,14.14.05,28.29.05,42.43,0,3.3-.46,6.44-4.12,7.72-1.3.46-2.77.61-4.16.61-16.81.04-33.61.04-50.42.02-6.06,0-8.31-2.24-8.33-8.3-.04-14.14-.07-28.29.04-42.43.02-2.5-.69-3.3-3.24-3.28-14.14.11-28.29.05-42.43.05-3.31,0-6.45-.47-7.71-4.14-.47-1.38-.6-2.93-.61-4.41-.06-8.32-.03-16.64-.03-24.96ZM186.39,242.37c0-1.29,0-2.28,0-3.27,0-14.06,0-28.12,0-42.19,0-3,.32-6.01,3.51-7.36,1.54-.66,3.38-.86,5.08-.86,14.31-.07,28.62-.08,42.93.01,2.22.01,2.81-.64,2.79-2.82-.1-11.73-.11-23.46,0-35.2.02-2.23-.65-2.81-2.82-2.79-14.23.09-28.46.06-42.69.04-6.19,0-8.44-2.27-8.44-8.4,0-14.15,0-28.29,0-42.44,0-.96,0-1.91,0-2.85h-41.09v2.83c0,6.32,0,12.65,0,18.97,0,7.99.01,15.98,0,23.96,0,3.05-.61,5.95-3.8,7.2-1.49.59-3.25.69-4.88.69-14.23.05-28.46.06-42.69,0-1.97-.01-2.54.57-2.52,2.54.09,11.9.08,23.8,0,35.7-.01,1.93.48,2.61,2.5,2.57,5.99-.12,11.98-.04,17.97-.04,8.49,0,16.97,0,25.46,0,3.05,0,5.95.58,7.22,3.76.59,1.49.71,3.24.72,4.88.05,14.06.03,28.12.04,42.19,0,.95.1,1.91.15,2.89h40.56Z"/>
</svg>